<svg width="25" height="20" viewBox="0 0 25 20" fill="none" xmlns="http://www.w3.org/2000/svg">
<mask id="mask0_0_25" style="mask-type:alpha" maskUnits="userSpaceOnUse" x="0" y="0" width="25" height="20">
<path fill-rule="evenodd" clip-rule="evenodd" d="M0 0.043457H24.4606V19.9618H0V0.043457Z" fill="white"/>
</mask>
<g mask="url(#mask0_0_25)">
<path fill-rule="evenodd" clip-rule="evenodd" d="M7.65981 19.9616C16.9089 19.9616 21.9666 12.2992 21.9666 5.65478C21.9666 5.43727 21.9621 5.22053 21.9524 5.0049C22.9341 4.29521 23.7875 3.4094 24.4606 2.40106C23.5597 2.80163 22.5899 3.07103 21.573 3.19281C22.6111 2.57027 23.4083 1.58557 23.7841 0.411611C22.8125 0.987534 21.7365 1.40605 20.5911 1.63199C19.6736 0.654776 18.3671 0.043457 16.9205 0.043457C14.1438 0.043457 11.892 2.29521 11.892 5.07099C11.892 5.46576 11.9361 5.84945 12.0224 6.21761C7.84322 6.00739 4.13746 4.00667 1.65765 0.963937C1.22585 1.70715 0.976838 2.57046 0.976838 3.49147C0.976838 5.23588 1.8647 6.77607 3.21439 7.67684C2.38945 7.65156 1.61458 7.42504 0.937126 7.04811C0.936358 7.06931 0.936358 7.08969 0.936358 7.11219C0.936358 9.54753 2.66955 11.5809 4.9706 12.0415C4.54811 12.1564 4.10336 12.2184 3.6447 12.2184C3.32115 12.2184 3.00605 12.1866 2.69952 12.1277C3.33972 14.1257 5.19617 15.5795 7.39698 15.6201C5.67597 16.9691 3.50777 17.7726 1.15166 17.7726C0.746238 17.7726 0.345663 17.7494 -0.0479584 17.7031C2.17737 19.1294 4.82015 19.9618 7.66 19.9618" fill="#1DA1F2"/>
</g>
</svg>
